<?xml version="1.0" encoding="UTF-8"?>
<svg id="Layer_2" xmlns="http://www.w3.org/2000/svg" viewBox="0 0 247.93 268.99">
  <defs>
    <style>
      .cls-1 {
        fill: #fcfdfe;
      }
    </style>
  </defs>
  <g id="Layer_1-2" data-name="Layer_1">
    <path class="cls-1" d="M95.62,139.88V2.5c76.92-12.45,163.71,19.58,151.09,140.39h-39.43c5.63-53.85-5.67-97.41-72.19-103.59,0,55,.22,108.88-.08,162.76-.21,37.81-29.95,67.28-67.38,66.93-28.04-.27-48.75-13.56-60.61-38.7-11.92-25.26-8.55-49.91,9.29-71.27,18.16-21.75,41.95-28.53,69.51-21.68,2.7.67,5.38,1.4,9.8,2.54ZM39.86,197.89c-.59,19.35,11.75,33.12,27.65,32.42,17.16-.75,28.09-10.41,28.37-27.75.27-17.2-9.96-28.08-27.25-28.65-17.39-.58-26.8,9.89-28.77,23.98Z"/>
  </g>
</svg>