<svg id="Layer_1" viewBox="0 0 622.22 622.22" xmlns="http://www.w3.org/2000/svg" xmlns:xlink="http://www.w3.org/1999/xlink">
<defs>
<style>
      .logo-cls-1 {
        fill: url(#logo-gradient-2);
      }
      .logo-cls-2 {
        fill: #231f20;
      }
      .logo-cls-3 {
        fill: #fff;
      }
      .logo-cls-4 {
        fill: url(#logo-gradient-4);
      }
      .logo-cls-5 {
        fill: url(#logo-gradient-3);
      }
      .logo-cls-6 {
        fill: url(#logo-gradient-5);
      }
      .logo-cls-7 {
        fill: none;
        stroke: url(#logo-gradient);
        stroke-width: 3.56px;
      }
    

</style>
<lineargradient gradientUnits="userSpaceOnUse" id="logo-gradient" x1="364.36" x2="266.33" y1="388.38" y2="119.03">
<stop offset="0" stop-color="#808284"></stop>
<stop offset=".22" stop-color="#d4d6d7"></stop>
<stop offset=".41" stop-color="#8e9093"></stop>
<stop offset=".52" stop-color="#9ea0a3"></stop>
<stop offset=".77" stop-color="#d4d6d7"></stop>
</lineargradient>
<lineargradient gradientUnits="userSpaceOnUse" id="logo-gradient-2" x1="364.36" x2="266.33" y1="388.38" y2="119.03">
<stop offset="0" stop-color="#444446"></stop>
<stop offset=".23" stop-color="#d4d6d7"></stop>
<stop offset=".48" stop-color="#9ea0a3"></stop>
<stop offset=".59" stop-color="#8e9093"></stop>
<stop offset=".85" stop-color="#535456"></stop>
<stop offset="1" stop-color="#808284"></stop>
</lineargradient>
<lineargradient id="logo-gradient-3" x1="228.24" x2="207.7" xlink:href="#logo-gradient-2" y1="449.63" y2="393.2"></lineargradient>
<lineargradient id="logo-gradient-4" x1="321.38" x2="300.84" xlink:href="#logo-gradient-2" y1="449.63" y2="393.2"></lineargradient>
<lineargradient id="logo-gradient-5" x1="414.52" x2="393.98" xlink:href="#logo-gradient-2" y1="449.63" y2="393.2"></lineargradient>
</defs>
<rect class="logo-cls-3" height="622.22" rx="311.11" ry="311.11" width="622.22" x="0" y="0"></rect>
<g>
<g>
<g>
<path class="logo-cls-2" d="M324.5,189.91l-11.69-5.68c-15.66-7.58-31.47-12.06-47.43-13.44-13.55,2.91-23.35,6.74-29.39,11.47-1.51,1.19-2.84,2.49-3.97,3.9l-27.06-15.38c-9.03,3.64-18.83,10.53-29.39,20.65-16.76-10.2-32.38-17.08-46.88-20.65l-28.74,16.39c-6.41,3.64-11.07,5.46-13.99,5.46s-5.1-1.86-6.56-5.57v76.6c3.28-3.64,10.85-5.46,22.73-5.46,14.06,0,22.87,3.64,26.44,10.93h-27.32c-14.57,0-21.86,3.64-21.86,10.93.07,21.78,6.52,35.44,19.34,40.98l9.62,4.04c6.34,2.77,9.51,6.01,9.51,9.73,8.52-1.89,15.19-6.01,20-12.35,4.73-6.41,7.1-15.08,7.1-26.01v-10.93c5.83,0,9.98,4.66,12.46,13.99,2.48,9.4,3.72,15.88,3.72,19.45s-.87,6.16-2.62,7.76l-2.62,2.4c3.64,3.72,16.39,5.57,38.25,5.57,13.84,0,25.5-5.94,34.97-17.81,9.47-11.87,14.21-27.83,14.21-47.86,0-14.5-3.64-25.39-10.93-32.67-7.21-7.28-14.5-10.93-21.86-10.93-10.93,0-19.12,2.26-24.59,6.78-5.46,4.59-8.2,11.44-8.2,20.54s2.22,15.95,6.67,20.54c4.44,4.52,11.15,6.78,20.11,6.78,7.65,0,13.29-5.46,16.94-16.39-3.64,0-5.46-.91-5.46-2.73s1.82-2.73,5.46-2.73,5.46,3.64,5.46,10.93c0,8.74-2.84,16.03-8.52,21.85-5.61,5.83-13.77,8.74-24.48,8.74-10.05,0-16.25-2.55-18.58-7.65-3.57-7.65-7.89-13.39-12.95-17.21-5.06-3.82-10.87-5.74-17.43-5.74v-23.71c0-5.1,1.86-9.51,5.57-13.22-3.72,0-11.15-2.04-22.29-6.12-11.15-4.08-23.13-6.12-35.95-6.12,5.25-7.28,14.97-10.93,29.18-10.93,13.48,0,26.15,3.61,38.03,10.82,8.6-7.21,17.45-10.82,26.55-10.82,8.38-.07,15.84,1.75,22.4,5.46,6.56,3.64,13.08,5.46,19.56,5.46,2.86-.03,6.08-1.85,9.65-5.47.06,0,.12,0,.19,0-.02-.05-.04-.09-.05-.14,2.59-2.65,5.38-6.25,8.34-10.78.15,0,.3,0,.45,0,8.74,0,23.13,4.01,43.16,12.02,20.03,7.94,30.05,14.86,30.05,20.76,0,3.64-3.28,8.2-9.83,13.66l-19.67,16.39c-6.56,5.46-11.29,6.38-14.21,2.73,0,25.43,7.28,41.82,21.86,49.17l8.3,5.46c5.46,3.72,8.2,7.39,8.2,11.04,7.28-2.84,12.73-7.21,16.34-13.11,3.61-5.9,5.41-14.24,5.41-25.02v-84.69c.07-5.39,1.93-11.98,5.57-19.78-3.72,2.19-9.47,1.42-17.27-2.29ZM128.57,294.27c-6.63-.58-10.89-3.5-12.79-8.74h12.79v8.74ZM319.8,285.09c-7.21-3.93-10.82-8.45-10.82-13.55l10.82-10.93v24.48Z"></path>
<path class="logo-cls-2" d="M523.38,237.66c-19.09-8.16-41.02-12.24-65.78-12.24-19.82,0-36.24,2.4-49.28,7.21-2.7-9.32-8.49-16.1-17.37-20.33,5.75-3.64,12.46-5.46,20.11-5.46,12.02,1.46,23.6,5.79,34.75,13,11.51-8.67,21.09-13,28.74-13,5.46-.07,12.2,2.09,20.22,6.5,8.01,4.41,16.35,6.61,25.02,6.61,6.56,0,14.24-9.83,23.06-29.5-8.01,2.19-18.25-.55-30.71-8.2l-18.69-11.47c-9.03,3.64-18.83,10.53-29.39,20.65-16.03-10.2-31.29-17.08-45.79-20.65l-28.74,16.39c-6.41,3.64-11.07,5.46-13.99,5.46s-5.1-1.86-6.56-5.57v43.82c7.65-6.19,18.14-4.48,31.47,5.14-3.5,1.68-6.67,3.61-9.51,5.79-14.57,10.93-21.89,25.5-21.96,43.71,0,14.21,4.59,25.94,13.77,35.19,9.03,9.33,22.66,13.99,40.87,13.99,0-3.72,3.64-7.36,10.93-10.93,7.28-3.64,10.93-9.91,10.93-18.8s-2.73-16.24-8.2-21.86c-5.46-5.68-11.84-8.52-19.12-8.52s-12.68,2.19-16.39,6.56c7.36,0,11.04,2.7,11.04,8.09,0,3.93-4.55,5.94-13.66,6.01-7.72.07-11.58-2.99-11.58-9.18,0-7.5,5.64-13.11,16.94-16.83,11.29-3.72,28.23-5.57,50.81-5.57,18.8,0,31.98.91,39.56,2.73,7.65,1.9,13.51,3.97,17.59,6.23l-24.15,12.89c-5.39,3.64-8.74,3.64-10.05,0,.07,18.14,5.57,29.98,16.5,35.51l8.2,4.04c5.46,2.77,8.2,6.01,8.2,9.73,7.28-1.89,12.71-6.05,16.28-12.46,3.64-6.34,5.46-14.97,5.46-25.9v-43.71c.07-3.64,1.93-8.05,5.57-13.22-3.72,1.46-8.74.84-15.08-1.86ZM516.49,294.27c-3.79-.58-6.48-2.26-8.09-5.03l8.09-5.9v10.93Z"></path>
</g>
<g>
<path class="logo-cls-7" d="M324.5,189.91l-11.69-5.68c-15.66-7.58-31.47-12.06-47.43-13.44-13.55,2.91-23.35,6.74-29.39,11.47-1.51,1.19-2.84,2.49-3.97,3.9l-27.06-15.38c-9.03,3.64-18.83,10.53-29.39,20.65-16.76-10.2-32.38-17.08-46.88-20.65l-28.74,16.39c-6.41,3.64-11.07,5.46-13.99,5.46s-5.1-1.86-6.56-5.57v76.6c3.28-3.64,10.85-5.46,22.73-5.46,14.06,0,22.87,3.64,26.44,10.93h-27.32c-14.57,0-21.86,3.64-21.86,10.93.07,21.78,6.52,35.44,19.34,40.98l9.62,4.04c6.34,2.77,9.51,6.01,9.51,9.73,8.52-1.89,15.19-6.01,20-12.35,4.73-6.41,7.1-15.08,7.1-26.01v-10.93c5.83,0,9.98,4.66,12.46,13.99,2.48,9.4,3.72,15.88,3.72,19.45s-.87,6.16-2.62,7.76l-2.62,2.4c3.64,3.72,16.39,5.57,38.25,5.57,13.84,0,25.5-5.94,34.97-17.81,9.47-11.87,14.21-27.83,14.21-47.86,0-14.5-3.64-25.39-10.93-32.67-7.21-7.28-14.5-10.93-21.86-10.93-10.93,0-19.12,2.26-24.59,6.78-5.46,4.59-8.2,11.44-8.2,20.54s2.22,15.95,6.67,20.54c4.44,4.52,11.15,6.78,20.11,6.78,7.65,0,13.29-5.46,16.94-16.39-3.64,0-5.46-.91-5.46-2.73s1.82-2.73,5.46-2.73,5.46,3.64,5.46,10.93c0,8.74-2.84,16.03-8.52,21.85-5.61,5.83-13.77,8.74-24.48,8.74-10.05,0-16.25-2.55-18.58-7.65-3.57-7.65-7.89-13.39-12.95-17.21-5.06-3.82-10.87-5.74-17.43-5.74v-23.71c0-5.1,1.86-9.51,5.57-13.22-3.72,0-11.15-2.04-22.29-6.12-11.15-4.08-23.13-6.12-35.95-6.12,5.25-7.28,14.97-10.93,29.18-10.93,13.48,0,26.15,3.61,38.03,10.82,8.6-7.21,17.45-10.82,26.55-10.82,8.38-.07,15.84,1.75,22.4,5.46,6.56,3.64,13.08,5.46,19.56,5.46,2.86-.03,6.08-1.85,9.65-5.47.06,0,.12,0,.19,0-.02-.05-.04-.09-.05-.14,2.59-2.65,5.38-6.25,8.34-10.78.15,0,.3,0,.45,0,8.74,0,23.13,4.01,43.16,12.02,20.03,7.94,30.05,14.86,30.05,20.76,0,3.64-3.28,8.2-9.83,13.66l-19.67,16.39c-6.56,5.46-11.29,6.38-14.21,2.73,0,25.43,7.28,41.82,21.86,49.17l8.3,5.46c5.46,3.72,8.2,7.39,8.2,11.04,7.28-2.84,12.73-7.21,16.34-13.11,3.61-5.9,5.41-14.24,5.41-25.02v-84.69c.07-5.39,1.93-11.98,5.57-19.78-3.72,2.19-9.47,1.42-17.27-2.29ZM128.57,294.27c-6.63-.58-10.89-3.5-12.79-8.74h12.79v8.74ZM319.8,285.09c-7.21-3.93-10.82-8.45-10.82-13.55l10.82-10.93v24.48Z"></path>
<path class="logo-cls-7" d="M523.38,237.66c-19.09-8.16-41.02-12.24-65.78-12.24-19.82,0-36.24,2.4-49.28,7.21-2.7-9.32-8.49-16.1-17.37-20.33,5.75-3.64,12.46-5.46,20.11-5.46,12.02,1.46,23.6,5.79,34.75,13,11.51-8.67,21.09-13,28.74-13,5.46-.07,12.2,2.09,20.22,6.5,8.01,4.41,16.35,6.61,25.02,6.61,6.56,0,14.24-9.83,23.06-29.5-8.01,2.19-18.25-.55-30.71-8.2l-18.69-11.47c-9.03,3.64-18.83,10.53-29.39,20.65-16.03-10.2-31.29-17.08-45.79-20.65l-28.74,16.39c-6.41,3.64-11.07,5.46-13.99,5.46s-5.1-1.86-6.56-5.57v43.82c7.65-6.19,18.14-4.48,31.47,5.14-3.5,1.68-6.67,3.61-9.51,5.79-14.57,10.93-21.89,25.5-21.96,43.71,0,14.21,4.59,25.94,13.77,35.19,9.03,9.33,22.66,13.99,40.87,13.99,0-3.72,3.64-7.36,10.93-10.93,7.28-3.64,10.93-9.91,10.93-18.8s-2.73-16.24-8.2-21.86c-5.46-5.68-11.84-8.52-19.12-8.52s-12.68,2.19-16.39,6.56c7.36,0,11.04,2.7,11.04,8.09,0,3.93-4.55,5.94-13.66,6.01-7.72.07-11.58-2.99-11.58-9.18,0-7.5,5.64-13.11,16.94-16.83,11.29-3.72,28.23-5.57,50.81-5.57,18.8,0,31.98.91,39.56,2.73,7.65,1.9,13.51,3.97,17.59,6.23l-24.15,12.89c-5.39,3.64-8.74,3.64-10.05,0,.07,18.14,5.57,29.98,16.5,35.51l8.2,4.04c5.46,2.77,8.2,6.01,8.2,9.73,7.28-1.89,12.71-6.05,16.28-12.46,3.64-6.34,5.46-14.97,5.46-25.9v-43.71c.07-3.64,1.93-8.05,5.57-13.22-3.72,1.46-8.74.84-15.08-1.86ZM516.49,294.27c-3.79-.58-6.48-2.26-8.09-5.03l8.09-5.9v10.93Z"></path>
</g>
<g>
<path class="logo-cls-1" d="M324.5,189.91l-11.69-5.68c-15.66-7.58-31.47-12.06-47.43-13.44-13.55,2.91-23.35,6.74-29.39,11.47-1.51,1.19-2.84,2.49-3.97,3.9l-27.06-15.38c-9.03,3.64-18.83,10.53-29.39,20.65-16.76-10.2-32.38-17.08-46.88-20.65l-28.74,16.39c-6.41,3.64-11.07,5.46-13.99,5.46s-5.1-1.86-6.56-5.57v76.6c3.28-3.64,10.85-5.46,22.73-5.46,14.06,0,22.87,3.64,26.44,10.93h-27.32c-14.57,0-21.86,3.64-21.86,10.93.07,21.78,6.52,35.44,19.34,40.98l9.62,4.04c6.34,2.77,9.51,6.01,9.51,9.73,8.52-1.89,15.19-6.01,20-12.35,4.73-6.41,7.1-15.08,7.1-26.01v-10.93c5.83,0,9.98,4.66,12.46,13.99,2.48,9.4,3.72,15.88,3.72,19.45s-.87,6.16-2.62,7.76l-2.62,2.4c3.64,3.72,16.39,5.57,38.25,5.57,13.84,0,25.5-5.94,34.97-17.81,9.47-11.87,14.21-27.83,14.21-47.86,0-14.5-3.64-25.39-10.93-32.67-7.21-7.28-14.5-10.93-21.86-10.93-10.93,0-19.12,2.26-24.59,6.78-5.46,4.59-8.2,11.44-8.2,20.54s2.22,15.95,6.67,20.54c4.44,4.52,11.15,6.78,20.11,6.78,7.65,0,13.29-5.46,16.94-16.39-3.64,0-5.46-.91-5.46-2.73s1.82-2.73,5.46-2.73,5.46,3.64,5.46,10.93c0,8.74-2.84,16.03-8.52,21.85-5.61,5.83-13.77,8.74-24.48,8.74-10.05,0-16.25-2.55-18.58-7.65-3.57-7.65-7.89-13.39-12.95-17.21-5.06-3.82-10.87-5.74-17.43-5.74v-23.71c0-5.1,1.86-9.51,5.57-13.22-3.72,0-11.15-2.04-22.29-6.12-11.15-4.08-23.13-6.12-35.95-6.12,5.25-7.28,14.97-10.93,29.18-10.93,13.48,0,26.15,3.61,38.03,10.82,8.6-7.21,17.45-10.82,26.55-10.82,8.38-.07,15.84,1.75,22.4,5.46,6.56,3.64,13.08,5.46,19.56,5.46,2.86-.03,6.08-1.85,9.65-5.47.06,0,.12,0,.19,0-.02-.05-.04-.09-.05-.14,2.59-2.65,5.38-6.25,8.34-10.78.15,0,.3,0,.45,0,8.74,0,23.13,4.01,43.16,12.02,20.03,7.94,30.05,14.86,30.05,20.76,0,3.64-3.28,8.2-9.83,13.66l-19.67,16.39c-6.56,5.46-11.29,6.38-14.21,2.73,0,25.43,7.28,41.82,21.86,49.17l8.3,5.46c5.46,3.72,8.2,7.39,8.2,11.04,7.28-2.84,12.73-7.21,16.34-13.11,3.61-5.9,5.41-14.24,5.41-25.02v-84.69c.07-5.39,1.93-11.98,5.57-19.78-3.72,2.19-9.47,1.42-17.27-2.29ZM128.57,294.27c-6.63-.58-10.89-3.5-12.79-8.74h12.79v8.74ZM319.8,285.09c-7.21-3.93-10.82-8.45-10.82-13.55l10.82-10.93v24.48Z"></path>
<path class="logo-cls-1" d="M523.38,237.66c-19.09-8.16-41.02-12.24-65.78-12.24-19.82,0-36.24,2.4-49.28,7.21-2.7-9.32-8.49-16.1-17.37-20.33,5.75-3.64,12.46-5.46,20.11-5.46,12.02,1.46,23.6,5.79,34.75,13,11.51-8.67,21.09-13,28.74-13,5.46-.07,12.2,2.09,20.22,6.5,8.01,4.41,16.35,6.61,25.02,6.61,6.56,0,14.24-9.83,23.06-29.5-8.01,2.19-18.25-.55-30.71-8.2l-18.69-11.47c-9.03,3.64-18.83,10.53-29.39,20.65-16.03-10.2-31.29-17.08-45.79-20.65l-28.74,16.39c-6.41,3.64-11.07,5.46-13.99,5.46s-5.1-1.86-6.56-5.57v43.82c7.65-6.19,18.14-4.48,31.47,5.14-3.5,1.68-6.67,3.61-9.51,5.79-14.57,10.93-21.89,25.5-21.96,43.71,0,14.21,4.59,25.94,13.77,35.19,9.03,9.33,22.66,13.99,40.87,13.99,0-3.72,3.64-7.36,10.93-10.93,7.28-3.64,10.93-9.91,10.93-18.8s-2.73-16.24-8.2-21.86c-5.46-5.68-11.84-8.52-19.12-8.52s-12.68,2.19-16.39,6.56c7.36,0,11.04,2.7,11.04,8.09,0,3.93-4.55,5.94-13.66,6.01-7.72.07-11.58-2.99-11.58-9.18,0-7.5,5.64-13.11,16.94-16.83,11.29-3.72,28.23-5.57,50.81-5.57,18.8,0,31.98.91,39.56,2.73,7.65,1.9,13.51,3.97,17.59,6.23l-24.15,12.89c-5.39,3.64-8.74,3.64-10.05,0,.07,18.14,5.57,29.98,16.5,35.51l8.2,4.04c5.46,2.77,8.2,6.01,8.2,9.73,7.28-1.89,12.71-6.05,16.28-12.46,3.64-6.34,5.46-14.97,5.46-25.9v-43.71c.07-3.64,1.93-8.05,5.57-13.22-3.72,1.46-8.74.84-15.08-1.86ZM516.49,294.27c-3.79-.58-6.48-2.26-8.09-5.03l8.09-5.9v10.93Z"></path>
</g>
</g>
<g>
<circle class="logo-cls-5" cx="217.97" cy="421.42" r="30.02"></circle>
<circle class="logo-cls-4" cx="311.11" cy="421.42" r="30.02"></circle>
<circle class="logo-cls-6" cx="404.25" cy="421.42" r="30.02"></circle>
</g>
</g>
</svg>